<svg width="1024" height="1024" viewBox="0 0 1024 1024" fill="none" xmlns="http://www.w3.org/2000/svg">
<rect width="1024" height="1024" fill="white"/>
<path d="M508.872 172L843.18 185.914L866 275.193L843.18 383.603L763.882 589.988L508.872 870L248.728 566.799L170 172H508.872Z" fill="#304FFE"/>
<path d="M508.872 172L843.18 185.914L866 275.193L843.18 383.603L763.882 589.988L508.872 870L248.728 566.799L170 172H508.872Z" fill="#304FFE"/>
<path d="M951.055 37.1781C948.674 27.4617 941.715 19.426 932.301 15.5143C922.887 11.6025 912.133 12.2853 903.31 17.3525C787.644 83.7936 643.935 83.7978 528.26 17.3525C518.166 11.55 505.637 11.55 495.539 17.3525C379.87 83.7957 236.159 83.7957 120.49 17.3525C111.672 12.2853 100.916 11.6088 91.5021 15.5143C82.0882 19.4239 75.1288 27.4617 72.7474 37.1781C-10.4569 376.644 120.069 731.935 405.276 942.326L492.45 1006.63C498.204 1010.88 505.05 1013 511.899 1013C518.747 1013 525.596 1010.88 531.351 1006.63L618.524 942.326C903.734 731.935 1034.26 376.644 951.055 37.1781ZM579.627 892.036L511.901 941.994L444.178 892.036C190.555 704.946 68.7138 394.385 126.834 91.5877C249.381 146.499 392.029 142.844 511.901 80.6171C631.778 142.844 774.42 146.501 896.968 91.5877C955.089 394.385 833.248 704.946 579.627 892.036Z" fill="#304FFE"/>
<path d="M854.369 162.466C849.187 158.877 842.643 157.707 836.505 159.275C797.131 169.287 756.517 174.365 715.789 174.365C649.191 174.365 581.712 160.348 520.644 133.827C515.077 131.411 508.726 131.411 503.161 133.827C442.095 160.348 374.617 174.365 308.018 174.365C267.288 174.365 226.672 169.287 187.3 159.275C181.154 157.709 174.616 158.88 169.438 162.466C164.26 166.052 160.966 171.69 160.439 177.869C149.96 301.266 170.46 426.846 219.722 541.028C273.598 665.91 360.629 775.114 471.408 856.832L498.938 877.139C502.774 879.969 507.339 881.385 511.904 881.385C516.469 881.385 521.034 879.969 524.869 877.139L552.397 856.832C663.178 775.112 750.21 665.906 804.086 541.028C853.345 426.843 873.847 301.266 863.368 177.869C862.841 171.688 859.549 166.052 854.369 162.466ZM764.434 524.713C713.496 642.784 631.206 746.038 526.463 823.305L511.901 834.049L497.337 823.307C392.597 746.042 310.307 642.791 259.367 524.715C216.028 424.257 196.232 314.47 201.672 205.699C236.613 212.793 272.275 216.382 308.016 216.382C377.428 216.382 447.706 202.415 511.901 175.922C576.099 202.413 646.377 216.382 715.787 216.382C751.526 216.382 787.188 212.793 822.13 205.699C827.571 314.468 807.775 424.255 764.434 524.713Z" fill="#304FFE"/>
<path d="M472.25 497.25C472.25 518.75 466.083 534.583 453.75 544.75C441.583 554.917 424 560 401 560C378 560 360.333 554.917 348 544.75C335.833 534.583 329.75 518.75 329.75 497.25V495H381.5V497C381.5 504.833 382.917 510.417 385.75 513.75C388.75 517.083 393.25 518.75 399.25 518.75C405.25 518.75 409.667 517.083 412.5 513.75C415.5 510.417 417 504.833 417 497V385H472.25V497.25ZM625.748 385H694.248L632.498 455.75L695.498 557H630.248L594.498 494L564.498 518.5V557H509.248V385H564.498V458.5L625.748 385Z" fill="white"/>
<path d="M411.227 305.236L411.231 305.233C413.142 303.549 414.832 302.786 417.091 302.899C419.407 303.014 422.364 304.049 426.79 306.128L426.792 306.129C432.948 308.989 436.834 310.693 440.078 311.753C443.338 312.819 445.943 313.232 449.532 313.529C454.621 313.985 460.048 313.749 467.885 312.754L467.888 312.754C471.606 312.261 474.048 312 475.797 311.946C477.535 311.892 478.554 312.045 479.436 312.361C480.065 312.594 480.547 312.817 480.987 313.132C481.426 313.446 481.845 313.867 482.319 314.519C483.284 315.843 484.429 318.045 486.411 322.06C486.412 322.061 486.412 322.061 486.412 322.061L486.86 321.84C490.245 328.737 491.957 330.852 497.353 334.905L411.227 305.236ZM411.227 305.236C408.93 307.223 406.479 310.06 403.641 314.034L403.64 314.036C398.859 320.674 394.782 324.613 388.73 328.416C384.185 331.293 380.422 332.937 370.931 336.435L370.929 336.436C366.156 338.173 363.538 339.305 362.06 340.625C360.649 341.885 360.251 343.344 360.127 345.971L360.127 345.975C360.058 347.256 360.083 350.53 360.133 353.223C360.283 359.22 359.303 363.99 356.835 369.238L356.834 369.239C356.37 370.224 355.961 371.161 355.676 371.878C355.533 372.238 355.424 372.535 355.355 372.753C355.333 372.823 355.316 372.882 355.304 372.928C355.315 372.939 355.326 372.95 355.339 372.962C355.438 373.057 355.586 373.181 355.778 373.324C356.159 373.61 356.677 373.952 357.237 374.277L357.237 374.277C359.559 375.625 370.083 380.811 372.519 381.85L373.804 382.35L378.132 378.859C378.132 378.859 378.132 378.858 378.133 378.858C387.175 371.494 397.882 365.719 412.339 360.458C415.658 359.243 422.094 357.515 428.609 355.981C435.126 354.446 441.768 353.096 445.505 352.645L445.507 352.645C460.343 350.902 473.369 351.32 484.056 353.914L484.056 353.914L488.061 354.888L493.387 347.688L493.388 347.687C494.907 345.649 496.37 343.646 497.497 342.069C498.06 341.28 498.538 340.599 498.896 340.074C499.262 339.536 499.483 339.19 499.553 339.053L499.56 339.04L499.567 339.027C499.772 338.678 499.867 338.446 499.892 338.259C499.913 338.098 499.887 337.936 499.751 337.713C499.604 337.472 499.337 337.175 498.885 336.775C498.438 336.379 497.839 335.905 497.051 335.303L411.227 305.236ZM355.236 372.85C355.235 372.85 355.236 372.852 355.239 372.855C355.237 372.852 355.236 372.85 355.236 372.85ZM432.864 323.806L432.865 323.806L440.416 322.235L441.813 321.945L440.903 323.044L437.752 326.85L437.748 326.854C436.016 328.901 433.825 331.531 432.898 332.655L432.898 332.655L432.893 332.661C432.411 333.225 431.98 333.752 431.676 334.153C431.532 334.344 431.423 334.498 431.351 334.611C431.372 334.648 431.396 334.689 431.423 334.735C431.542 334.94 431.714 335.23 431.93 335.592C432.363 336.315 432.968 337.317 433.668 338.471C435.067 340.777 436.842 343.688 438.369 346.19C438.48 346.365 438.586 346.536 438.662 346.687C438.701 346.764 438.738 346.849 438.765 346.935C438.79 347.018 438.817 347.134 438.803 347.265C438.788 347.412 438.721 347.569 438.579 347.686C438.451 347.791 438.307 347.826 438.203 347.838C438.005 347.86 437.774 347.819 437.546 347.763C436.616 347.531 434.644 346.732 430.956 345.219L430.953 345.217C429.239 344.499 427.642 343.86 426.451 343.407C425.854 343.181 425.364 343.003 425.012 342.885C424.873 342.838 424.76 342.802 424.673 342.777C424.604 342.844 424.515 342.933 424.407 343.045C424.137 343.325 423.763 343.728 423.312 344.226C422.412 345.223 421.216 346.591 419.955 348.093L419.953 348.097C418.679 349.587 417.49 350.911 416.599 351.836C416.154 352.296 415.776 352.667 415.494 352.912C415.357 353.031 415.223 353.137 415.107 353.207C415.054 353.238 414.965 353.288 414.858 353.31C414.761 353.331 414.464 353.357 414.285 353.082C414.242 353.017 414.222 352.955 414.214 352.927C414.202 352.889 414.195 352.852 414.19 352.823C414.18 352.764 414.173 352.699 414.169 352.634C414.16 352.502 414.156 352.331 414.155 352.13C414.154 351.726 414.168 351.171 414.194 350.509C414.244 349.184 414.341 347.409 414.462 345.513L414.462 345.509C414.597 343.591 414.717 341.827 414.798 340.528C414.839 339.879 414.87 339.347 414.89 338.971C414.897 338.838 414.902 338.726 414.905 338.636C414.828 338.595 414.73 338.545 414.612 338.487C414.256 338.311 413.74 338.069 413.101 337.777C411.823 337.195 410.066 336.424 408.135 335.607C408.135 335.607 408.134 335.607 408.133 335.607L401.085 332.685L399.706 332.114L401.151 331.739L408.654 329.794L408.656 329.794L415.817 327.979L416.273 320.938L416.273 320.935C416.42 318.88 416.581 317.014 416.721 315.656C416.791 314.978 416.856 314.422 416.911 314.03C416.939 313.836 416.965 313.674 416.991 313.555C417.003 313.498 417.018 313.435 417.037 313.379C417.046 313.353 417.063 313.308 417.091 313.26C417.105 313.235 417.13 313.195 417.171 313.153C417.209 313.114 417.29 313.043 417.418 313.012C417.6 312.968 417.741 313.036 417.781 313.056C417.838 313.084 417.88 313.118 417.905 313.139C417.957 313.182 418.006 313.234 418.046 313.28C418.129 313.375 418.23 313.506 418.344 313.662C418.573 313.977 418.88 314.431 419.243 314.986C419.97 316.098 420.935 317.639 421.97 319.342C423.003 321.042 423.946 322.592 424.637 323.721C424.982 324.286 425.264 324.744 425.462 325.062C425.518 325.151 425.566 325.228 425.607 325.294C425.69 325.279 425.788 325.26 425.902 325.238C426.292 325.164 426.852 325.052 427.541 324.912C428.918 324.633 430.805 324.24 432.864 323.806Z" fill="white" stroke="#304FFE"/>
<path d="M391.822 376.673L391.822 376.673L391.818 376.675C389.299 378.136 386.332 380.112 383.926 381.858C382.724 382.731 381.667 383.542 380.879 384.198C380.485 384.527 380.163 384.813 379.927 385.045C379.697 385.27 379.583 385.411 379.544 385.476C379.541 385.487 379.535 385.512 379.529 385.554C379.519 385.619 379.513 385.706 379.51 385.816C379.506 386.035 379.519 386.318 379.549 386.646C379.608 387.301 379.73 388.102 379.883 388.877C380.037 389.654 380.219 390.386 380.395 390.907C380.449 391.067 380.499 391.197 380.544 391.299C380.625 391.244 380.718 391.178 380.822 391.102C381.131 390.873 381.512 390.563 381.887 390.223L381.892 390.218L381.898 390.214C386.138 386.584 396.012 380.753 403.719 377.254L403.72 377.254C412.527 373.271 418.718 371.257 430.807 368.331C442.896 365.405 449.323 364.365 458.977 363.88L458.978 363.88C467.432 363.467 478.879 364.137 484.31 365.426L484.317 365.427L484.324 365.429C484.81 365.559 485.299 365.658 485.691 365.716C485.84 365.738 485.971 365.754 486.081 365.764C486.078 365.661 486.069 365.53 486.051 365.372C485.989 364.822 485.839 364.025 485.601 363.043L484.89 360.103L483.466 359.775L483.462 359.774C474.618 357.664 461.969 357.221 448.519 358.552C446.252 358.784 439.593 360.096 432.894 361.551C426.196 363.006 419.537 364.587 417.268 365.347C408.652 368.245 398.384 372.782 391.822 376.673Z" fill="white" stroke="#304FFE"/>
<path d="M420.423 377.487L420.42 377.488C410.923 380.642 401.628 384.772 394.762 388.822L394.761 388.823C392.544 390.125 389.545 392.11 387.073 393.863C385.838 394.739 384.74 395.552 383.941 396.19C383.54 396.51 383.222 396.78 383 396.988C382.889 397.093 382.81 397.175 382.759 397.235C382.745 397.251 382.735 397.264 382.728 397.273C382.729 397.294 382.733 397.348 382.769 397.446C382.824 397.596 382.93 397.795 383.1 398.039C383.438 398.526 383.977 399.127 384.671 399.785C386.055 401.1 388 402.594 390.028 403.814L390.028 403.814L390.034 403.818C391.791 404.907 393.041 405.601 394.306 406.134C395.57 406.666 396.866 407.045 398.721 407.491C405.206 409.021 411.113 409.379 419.884 408.75L419.884 408.75C422.851 408.539 430.104 407.105 437.491 405.398C444.873 403.692 452.307 401.731 455.631 400.481L455.632 400.48C464.326 397.223 470.285 394.075 475.663 389.97C480.478 386.266 484.64 380.651 486.086 375.912C486.412 374.807 486.647 374.012 486.764 373.413C486.885 372.798 486.855 372.508 486.777 372.347C486.712 372.213 486.561 372.067 486.091 371.911C485.62 371.755 484.951 371.627 483.993 371.446L483.988 371.445C473.968 369.443 461.455 369.395 447.662 371.237C442.126 371.979 425.263 375.847 420.423 377.487Z" fill="white" stroke="#304FFE"/>
</svg>
